<?xml version="1.0" encoding="UTF-8" standalone="no"?>
<svg
   version="1.1"
   width="595.27557pt"
   height="841.88977pt"
   id="svg2"
   viewBox="0 0 595.27557 841.88977"
   sodipodi:docname="Abercrombie_Kids_Logo.cdr"
   xmlns:inkscape="http://www.inkscape.org/namespaces/inkscape"
   xmlns:sodipodi="http://sodipodi.sourceforge.net/DTD/sodipodi-0.dtd"
   xmlns="http://www.w3.org/2000/svg"
   xmlns:svg="http://www.w3.org/2000/svg">
  <defs
     id="defs2" />
  <sodipodi:namedview
     id="namedview2"
     pagecolor="#ffffff"
     bordercolor="#000000"
     borderopacity="0.25"
     inkscape:showpageshadow="2"
     inkscape:pageopacity="0.0"
     inkscape:pagecheckerboard="0"
     inkscape:deskcolor="#d1d1d1"
     inkscape:document-units="pt" />
  <path
     d="m 172.042,482.0217 c 1.6672,0 1.864,0 2.4524,1.6349 l 2.8447,8.174 c 0.7845,2.5827 0.5884,2.9427 -1.5691,3.204 l -1.3408,0.1632 c -0.3593,0.3594 -0.2942,1.4388 0.1962,1.7659 2.0924,-0.0651 4.7409,-0.1961 7.3565,-0.1961 3.1059,0 5.3293,0.0652 7.8146,0.1961 0.4251,-0.3271 0.4251,-1.3407 -0.0652,-1.7659 l -0.9155,-0.1632 c -3.0408,-0.5555 -3.3679,-0.9807 -4.7409,-5.0022 l -8.665,-25.2413 c -0.9807,-2.6807 -1.7658,-5.5254 -2.7136,-8.2391 -0.2291,-0.2942 -0.5556,-0.4903 -1.0136,-0.4903 -0.131,0 -2.1253,2.4846 -4.2177,2.9098 0.1633,1.0136 -0.3594,2.4524 -1.1445,4.3815 l -8.2398,21.4482 c -1.2749,3.2369 -2.2233,5.7545 -2.9756,7.3242 -0.8827,1.9943 -1.5369,2.5505 -3.3021,2.7789 l -1.7982,0.2942 c -0.4252,0.5561 -0.3594,1.4387 0.0652,1.7659 2.0923,-0.131 3.9563,-0.1962 5.9506,-0.1962 2.4846,0.0652 4.4467,0.0652 6.3758,0.1962 0.4903,-0.2614 0.5555,-1.3408 0.131,-1.7659 l -1.733,-0.2942 c -2.2563,-0.2943 -2.4847,-0.4904 -1.2749,-4.0215 l 2.4524,-7.2262 c 0.5555,-1.6349 0.4903,-1.6349 2.06,-1.6349 h 8.0108 z m 268.9726,0.491 c 2.4194,0 3.7924,-0.2613 4.1524,-0.7846 0.2613,-0.4903 0.3271,-0.8504 0.3271,-1.4059 0,-5.2312 -4.5776,-8.1088 -9.0243,-8.1088 -8.0759,0 -12.7187,6.572 -12.7187,13.373 0,6.8332 4.6428,12.0322 11.607,12.0322 3.6944,0 8.1411,-1.7982 10.2012,-6.6371 -0.0652,-0.5233 -0.7523,-1.1446 -1.3407,-0.9485 -1.373,2.2234 -3.3679,3.0079 -5.7874,3.0079 -5.3622,0 -9.0895,-4.3486 -9.0895,-9.7437 0,-0.7194 0.131,-0.7845 1.2749,-0.7845 h 10.3973 z m -10.3322,-2.4195 c -0.7194,0 -0.8503,-0.1632 -0.8503,-0.4252 0,-1.2749 1.8639,-5.1661 5.8854,-5.1661 2.6156,0 3.9892,1.733 3.9892,3.8906 0,0.5555 -0.229,1.0465 -0.5884,1.2749 -0.4252,0.2613 -1.2097,0.4252 -2.9756,0.4252 h -5.4603 z m -12.1163,-0.9155 c 0,-2.4524 0.0651,-5.3293 0.1961,-7.3243 -0.1961,-0.2942 -0.4903,-0.4252 -0.8504,-0.4903 -1.6678,1.0136 -4.7079,2.3543 -7.8145,3.2698 -0.2613,0.2942 -0.2613,1.1117 -0.0652,1.373 l 0.7194,0.4252 c 1.5039,0.8826 1.5039,1.602 1.5039,4.3157 v 8.8604 c 0,4.4467 -0.229,5.1009 -2.2885,5.4274 l -1.0787,0.1632 c -0.4252,0.4252 -0.3594,1.504 0.1309,1.7659 2.2885,-0.1309 4.3157,-0.1961 6.3107,-0.1961 2.2233,0 4.2834,0.0652 6.5067,0.1961 0.4575,-0.2613 0.5233,-1.3407 0.0981,-1.7659 l -1.0788,-0.1632 c -2.0272,-0.3271 -2.2885,-0.9807 -2.2885,-5.4274 V 479.177 Z m -3.1712,-14.9098 c 2.2885,0 3.8583,-1.6349 3.8583,-3.7925 0,-2.1581 -1.5691,-3.7924 -3.8583,-3.7924 -2.2885,0 -3.8582,1.6349 -3.8582,3.7924 0,2.1582 1.5691,3.7925 3.8582,3.7925 z m -26.1973,-1.3407 c 0,-2.5827 0.0652,-6.3107 0.1962,-8.7301 -0.131,-0.2942 -0.4904,-0.5233 -0.8504,-0.4575 -2.4846,0.9485 -5.5912,2.2234 -7.8797,2.8776 -0.4252,0.1961 -0.3594,1.1446 0,1.373 l 0.8503,0.5555 c 1.3078,0.7845 1.373,1.2097 1.373,5.2312 v 27.1375 c 0,2.2562 -0.1961,5.4274 -0.1961,5.6564 0,0.1962 0.3594,0.4252 0.6213,0.4252 0.1632,0 0.2942,0 0.4252,-0.0329 0.3593,-0.4252 0.7845,-0.9807 1.5039,-0.9807 0.7194,0 3.5312,1.6349 8.0107,1.6349 7.8798,0 14.2556,-4.937 14.2556,-13.5032 0,-6.6701 -4.4467,-11.9013 -11.509,-11.9013 -2.3866,0 -4.3815,0.7846 -6.3106,1.9291 -0.3594,0 -0.4904,-0.2613 -0.4904,-1.0787 z m 0,16.5118 c 0,-2.0601 0.131,-2.8447 0.6543,-3.2041 0.4903,-0.3593 1.7659,-0.7845 2.9756,-0.7845 4.2505,0 7.9778,3.7924 7.9778,10.8554 0,5.1008 -2.2233,8.8933 -6.2448,8.8933 -1.733,0 -3.2041,-0.8826 -4.0215,-2.0272 -0.9807,-1.2749 -1.3407,-3.4002 -1.3407,-6.0487 v -7.6836 z m -50.8558,10.1682 c 0,4.4467 -0.229,5.1009 -2.2885,5.4274 l -1.0788,0.1632 c -0.4251,0.4252 -0.3593,1.504 0.131,1.7659 2.2885,-0.1309 4.2505,-0.1961 6.2448,-0.1961 2.2234,0 4.2835,0.0652 6.3758,0.1961 0.4904,-0.2613 0.5562,-1.3407 0.131,-1.7659 l -0.9155,-0.1309 c -2.0272,-0.3594 -2.2885,-1.0136 -2.2885,-5.4603 v -8.0759 c 0,-2.3543 0.0652,-2.8776 0.7845,-3.8583 0.6543,-0.8826 2.2234,-1.8639 4.2835,-1.8639 3.4982,0 4.5776,2.4195 4.5776,5.6235 v 8.174 c 0,4.4466 -0.229,5.1009 -2.2885,5.4602 l -0.7845,0.131 c -0.4252,0.4252 -0.3594,1.5039 0.1309,1.7659 1.9621,-0.131 4.0215,-0.1961 6.0158,-0.1961 2.2234,0 4.2177,0.0651 6.3106,0.1961 0.4904,-0.2613 0.5562,-1.3407 0.131,-1.7659 l -0.9155,-0.131 c -2.0272,-0.3593 -2.2885,-1.0136 -2.2885,-5.4602 v -8.8605 c 0,-1.6672 0.131,-2.3866 0.7194,-3.106 0.7194,-0.9155 2.2885,-1.831 4.0544,-1.831 3.7924,0 4.8718,2.4195 4.8718,5.6235 v 8.174 c 0,4.4466 -0.2613,5.1009 -2.2885,5.4273 l -0.9807,0.1633 c -0.4252,0.4251 -0.3594,1.5039 0.131,1.7659 2.1582,-0.131 4.2176,-0.1962 6.2126,-0.1962 2.2233,0 4.2505,0.0652 6.8661,0.1962 0.229,-0.2614 0.5233,-1.3408 0,-1.7659 l -1.3407,-0.1633 c -2.0601,-0.3271 -2.2885,-0.9807 -2.2885,-5.4273 v -9.3186 c 0,-4.708 -2.2885,-8.0759 -7.3565,-8.0759 -2.8118,0 -4.8719,1.0788 -7.6836,2.8118 -0.7194,0.4252 -1.0788,0.6213 -1.3407,0.6213 -0.2291,0 -0.5884,-0.3594 -0.9485,-0.9155 -0.8503,-1.1446 -2.8446,-2.5176 -5.4273,-2.5176 -4.0873,0 -5.6564,1.4388 -8.5992,3.0079 -0.3593,-0.0651 -0.5561,-0.1961 -0.5561,-0.5884 0,-0.4903 0,-1.6349 0.131,-2.7795 -0.131,-0.2613 -0.3594,-0.4903 -0.7846,-0.4903 -1.9291,1.0788 -5.1661,2.5175 -7.8146,3.2698 -0.2613,0.2942 -0.2613,1.1117 -0.0652,1.373 l 0.7194,0.4252 c 1.504,0.8826 1.504,1.602 1.504,4.3157 v 8.8604 z m -17.4627,-17.3938 c -7.0294,0 -13.1768,5.068 -13.1768,13.111 0,7.8798 5.7874,12.2935 12.7187,12.2935 7.1603,0 13.1768,-4.4466 13.1768,-13.0129 0,-7.8145 -5.9177,-12.3916 -12.7187,-12.3916 z m -6.0816,12.2278 c 0,-6.703 2.4195,-9.8089 5.4932,-9.8089 4.4466,0 6.1796,5.9506 6.1796,10.9857 0,4.6428 -1.1768,9.5798 -5.3293,9.5798 -4.3486,0 -6.3429,-5.297 -6.3429,-10.7573 z m -23.3995,5.166 c 0,4.4467 -0.2613,5.1009 -2.2885,5.4274 l -1.0787,0.1632 c -0.4252,0.4252 -0.3594,1.504 0.098,1.7659 2.2885,-0.1309 4.2835,-0.1961 6.2778,-0.1961 2.2233,0 4.2834,0.0652 7.8797,0.1961 0.4904,-0.2613 0.5562,-1.3407 0.131,-1.7659 l -2.3543,-0.229 c -2.0924,-0.2613 -2.3543,-0.9155 -2.3543,-5.3622 v -8.2391 c 0,-2.9757 0.3593,-4.3486 1.7658,-4.3486 0.3594,0 1.373,0.1309 2.8776,1.1445 0.4904,0.2942 1.0136,0.4904 1.6349,0.4904 1.602,0 3.3679,-1.1446 3.3679,-3.4983 0,-1.5691 -1.2097,-2.9427 -3.335,-2.9427 -2.0272,0 -4.0215,1.7982 -5.8854,3.1389 -0.3594,0 -0.5884,-0.3271 -0.5884,-0.7194 0,-0.5555 0.0329,-1.5691 0.098,-2.7137 -0.098,-0.3594 -0.4574,-0.5555 -0.8174,-0.5555 -1.8311,1.0787 -5.0029,2.4195 -7.5856,3.2698 -0.2613,0.2942 -0.2613,1.1117 -0.0651,1.373 l 0.7193,0.4252 c 1.504,0.8826 1.504,1.602 1.504,4.3157 v 8.8604 z m -12.7642,-17.3938 c -9.6779,0 -14.8111,6.441 -14.8111,13.471 0,3.4983 1.373,6.6371 3.4982,8.6643 2.0272,1.9943 5.1661,3.2699 8.3701,3.2699 3.7925,0 8.403,-1.7001 10.5935,-6.572 -0.0652,-0.7194 -0.7194,-1.1445 -1.2749,-1.0787 -1.2098,1.733 -2.5827,3.204 -6.5068,3.204 -5.4603,0 -8.5991,-4.6428 -8.5991,-9.5147 0,-5.6564 3.564,-9.0243 6.9971,-9.0243 2.3214,0 4.1524,1.8962 5.4603,3.6621 0.4251,0.5233 0.7193,0.6543 1.1445,0.6543 0.4904,0 1.504,-0.9156 1.504,-2.8118 0,-1.4059 -0.4252,-2.3543 -1.2098,-3.0737 -1.6672,-0.6213 -3.433,-0.8504 -5.166,-0.8504 z m -31.116,17.3938 c 0,4.4467 -0.2613,5.1009 -2.2885,5.4274 l -1.0788,0.1632 c -0.4251,0.4252 -0.3593,1.504 0.0981,1.7659 2.2885,-0.1309 4.2834,-0.1961 6.2777,-0.1961 2.2234,0 4.2835,0.0652 7.8798,0.1961 0.4903,-0.2613 0.5555,-1.3407 0.131,-1.7659 l -2.3544,-0.229 c -2.0923,-0.2613 -2.3543,-0.9155 -2.3543,-5.3622 v -8.2391 c 0,-2.9757 0.3594,-4.3486 1.7659,-4.3486 0.3594,0 1.373,0.1309 2.8776,1.1445 0.4903,0.2942 1.0136,0.4904 1.6349,0.4904 1.602,0 3.3679,-1.1446 3.3679,-3.4983 0,-1.5691 -1.2097,-2.9427 -3.335,-2.9427 -2.0272,0 -4.0215,1.7982 -5.8854,3.1389 -0.3594,0 -0.5885,-0.3271 -0.5885,-0.7194 0,-0.5555 0.0329,-1.5691 0.0981,-2.7137 -0.0981,-0.3594 -0.4574,-0.5555 -0.8175,-0.5555 -1.831,1.0787 -5.0021,2.4195 -7.5855,3.2698 -0.2613,0.2942 -0.2613,1.1117 -0.0652,1.373 l 0.7194,0.4252 c 1.504,0.8826 1.504,1.602 1.504,4.3157 v 8.8604 z m -9.6488,-7.0945 c 2.4195,0 3.7925,-0.2613 4.1525,-0.7846 0.2613,-0.4903 0.3271,-0.8504 0.3271,-1.4059 0,-5.2312 -4.5777,-8.1088 -9.0243,-8.1088 -8.0759,0 -12.7187,6.572 -12.7187,13.373 0,6.8332 4.6428,12.0322 11.607,12.0322 3.6944,0 8.1411,-1.7982 10.2012,-6.6371 -0.0652,-0.5233 -0.7523,-1.1446 -1.3408,-0.9485 -1.3729,2.2234 -3.3679,3.0079 -5.7873,3.0079 -5.3622,0 -9.0895,-4.3486 -9.0895,-9.7437 0,-0.7194 0.1309,-0.7845 1.2749,-0.7845 h 10.3973 z m -10.3321,-2.4195 c -0.7194,0 -0.8504,-0.1632 -0.8504,-0.4252 0,-1.2749 1.864,-5.1661 5.8855,-5.1661 2.6156,0 3.9892,1.733 3.9892,3.8906 0,0.5555 -0.229,1.0465 -0.5884,1.2749 -0.4252,0.2613 -1.2098,0.4252 -2.9756,0.4252 h -5.4603 z m -28.9641,-17.166 c 0,-2.5827 0.0651,-6.3107 0.1961,-8.7301 -0.131,-0.2942 -0.4903,-0.5233 -0.8504,-0.4575 -2.4846,0.9485 -5.5912,2.2234 -7.8797,2.8776 -0.4252,0.1961 -0.3594,1.1446 0,1.373 l 0.8504,0.5555 c 1.3078,0.7845 1.3729,1.2097 1.3729,5.2312 v 27.1375 c 0,2.2562 -0.1961,5.4274 -0.1961,5.6564 0,0.1962 0.3594,0.4252 0.6213,0.4252 0.1632,0 0.2942,0 0.4252,-0.0329 0.3594,-0.4252 0.7845,-0.9807 1.5039,-0.9807 0.7194,0 3.5312,1.6349 8.0108,1.6349 7.8797,0 14.2555,-4.937 14.2555,-13.5032 0,-6.6701 -4.4467,-11.9013 -11.509,-11.9013 -2.3865,0 -4.3815,0.7846 -6.3106,1.9291 -0.3594,0 -0.4903,-0.2613 -0.4903,-1.0787 z m 0,16.5118 c 0,-2.0601 0.1309,-2.8447 0.6542,-3.2041 0.4903,-0.3593 1.7659,-0.7845 2.9756,-0.7845 4.2505,0 7.9778,3.7924 7.9778,10.8554 0,5.1008 -2.2233,8.8933 -6.2448,8.8933 -1.733,0 -3.204,-0.8826 -4.0215,-2.0272 -0.9807,-1.2749 -1.3407,-3.4002 -1.3407,-6.0487 v -7.6836 z m -33.5931,-0.131 c -1.4387,0 -1.602,0 -0.9484,-1.733 l 2.5176,-7.0623 c 1.0787,-2.8117 1.5691,-4.3157 1.7981,-4.7409 h 0.131 c 0.2942,0.4252 0.6542,1.5692 1.7001,4.7409 l 2.5175,7.2262 c 0.4904,1.4388 0.2291,1.5691 -1.4388,1.5691 h -6.2777 z"
     style="fill:#343434;fill-rule:evenodd"
     id="path1" />
  <path
     d="m 375.3185,406.528 c -2.8074,-7.0183 -4.2109,-24.7046 -4.2109,-24.7046 -0.2809,-10.9482 -8.141,-21.8966 -8.141,-21.8966 -5.3337,-3.6498 -3.9301,-16.0015 -3.9301,-16.0015 4.4912,-18.8089 -3.3689,-25.5465 -3.3689,-25.5465 -5.6147,-7.5795 -32.5648,-4.4915 -32.5648,-4.4915 -20.4928,0.5614 -25.5462,-7.2989 -25.5462,-7.2989 -2.2456,-5.0534 -18.2473,-4.211 -18.2473,-4.211 -6.1761,0.2807 -6.7374,-3.088 -6.7374,-3.088 0,-4.7725 2.5265,-5.3339 2.5265,-5.3339 16.2822,-6.4569 32.5644,-18.5284 32.5644,-18.5284 5.3336,-4.7721 -0.8419,-7.2986 -0.8419,-7.2986 1.1228,-8.4218 -1.9655,-7.58 -1.9655,-7.58 -4.7723,-0.5614 -3.93,6.1763 -3.93,6.1763 -0.2809,3.3687 -3.3688,2.5265 -3.3688,2.5265 0.8423,-3.3688 0.8423,-7.5797 0.8423,-7.5797 1.4036,-6.7376 -2.5265,-5.6145 -2.5265,-5.6145 -3.6494,-0.2809 -3.0882,3.93 -3.0882,3.93 0,5.0532 -3.6494,13.4751 -3.6494,13.4751 -1.9652,6.7376 -4.4915,0.2809 -4.4915,0.2809 -1.4037,-6.4568 -0.2808,-10.9486 -0.2808,-10.9486 3.088,-6.4569 -2.5265,-4.4916 -2.5265,-4.4916 -6.1761,-0.8422 -2.8074,24.1425 -2.8074,24.1425 -1.4036,2.8074 -3.6494,0.8423 -3.6494,0.8423 0.2807,-7.5795 -1.9651,-6.7373 -1.9651,-6.7373 -3.6496,0.2805 -2.2458,12.0713 -2.2458,12.0713 -2.5265,1.4038 -5.8956,6.7374 -5.8956,6.7374 -4.2109,-2.8073 -15.44,-0.2805 -15.44,-0.2805 -7.0181,0.2805 -5.3336,-3.6496 -5.3336,-3.6496 4.2109,-5.6145 15.1591,-8.1413 15.1591,-8.1413 10.1063,-3.3686 7.2991,-7.0181 7.2991,-7.0181 -0.5027,-2.0115 -3.1463,-2.3884 -5.9108,-2.1932 -3.4221,-3.2816 -6.3806,-0.4567 -7.9071,1.659 -5.087,1.6412 -3.5872,-0.8694 -3.5872,-0.8694 2.8072,-5.0534 -1.1231,-4.7725 -1.1231,-4.7725 -6.4565,0 -5.0529,7.5796 -5.0529,7.5796 0.842,5.8954 -2.2459,6.1759 -2.2459,6.1759 -4.2109,0.8424 -5.8953,-5.0528 -5.8953,-5.0528 -2.8074,-4.4918 -4.7723,-2.5266 -4.7723,-2.5266 -2.246,2.5266 -0.2809,4.7722 -0.2809,4.7722 3.088,3.9305 0,4.7727 0,4.7727 -5.3339,1.6841 -3.6496,-5.0531 -3.6496,-5.0531 -1.1227,-1.4038 -2.2456,-1.1233 -2.2456,-1.1233 -7.5799,4.2109 -2.8072,10.6679 -2.8072,10.6679 3.649,7.2989 18.2472,5.6145 18.2472,5.6145 0,0 4.4916,0 4.2109,3.0882 -0.2807,3.088 -3.6494,2.8072 -3.6494,2.8072 -17.1246,-2.5265 -20.4933,10.387 -20.4933,10.387 -2.5263,8.1412 3.0882,7.299 3.0882,7.299 5.3337,2.5264 11.229,0.2804 11.229,0.2804 2.5265,-2.2454 4.4917,1.1233 4.4917,1.1233 5.5209,8.8896 16.0017,8.141 16.0017,8.141 0.9351,4.3048 7.6731,10.4809 7.6731,10.4809 1.4977,5.6145 10.6679,16.4687 10.6679,16.4687 8.2348,8.0474 5.8015,23.9568 5.8015,23.9568 -3.3687,3.3683 -2.0587,9.9185 -2.0587,9.9185 l -0.9355,14.5981 c 0.5614,9.1707 -6.7374,11.2291 -6.7374,11.2291 -4.3042,1.3101 -2.995,3.7423 -2.995,3.7423 1.497,2.8073 6.2697,1.6844 6.2697,1.6844 5.8954,-1.1227 8.7027,-8.141 8.7027,-8.141 -0.8422,-7.0181 1.9652,-24.4236 1.9652,-24.4236 2.5267,-5.8948 2.5267,-17.9665 2.5267,-17.9665 -1.6845,-13.7557 2.8071,-11.791 2.8071,-11.791 7.2988,-1.4035 9.8257,18.2481 9.8257,18.2481 0,6.4566 2.807,12.0711 2.807,12.0711 6.7374,10.3872 5.8955,22.1774 5.8955,22.1774 -5.8955,5.0536 -4.2109,7.0181 -4.2109,7.0181 4.2109,2.2464 8.702,-3.6492 8.702,-3.6492 4.4918,-2.5263 1.4043,-7.5798 1.4043,-7.5798 -7.0188,-13.4747 -9.5453,-39.8638 -9.5453,-39.8638 0,-8.702 4.7727,-6.1757 4.7727,-6.1757 6.1756,2.5265 13.7555,-1.1227 13.7555,-1.1227 7.0181,-3.6498 7.2992,0.842 7.2992,0.842 2.2454,5.8954 1.6844,23.0199 1.6844,23.0199 0.2809,19.6511 -8.9836,26.1075 -8.9836,26.1075 -8.141,6.1764 -5.0528,7.58 -5.0528,7.58 9.2637,2.2456 13.1938,-8.7028 13.1938,-8.7028 5.0535,-8.4218 7.8607,-26.95 7.8607,-26.95 3.9301,-3.6492 2.5265,-6.7373 2.5265,-6.7373 -1.4036,-3.6492 -1.9653,-12.6328 -1.9653,-12.6328 0.5617,-12.0717 4.7727,-9.8255 4.7727,-9.8255 13.1943,4.4918 21.8965,28.6338 21.8965,28.6338 7.299,20.7744 2.2462,29.1963 2.2462,29.1963 -5.0535,1.6846 -3.0882,5.053 -3.0882,5.053 3.0882,1.6844 6.7374,-0.8421 6.7374,-0.8421 8.141,-3.93 4.4918,-8.1408 4.4918,-8.1408 z"
     style="fill:#343434;fill-rule:evenodd"
     id="path2" />
</svg>
