<?xml version="1.0" encoding="utf-8"?>
<!-- Generator: Adobe Illustrator 19.2.1, SVG Export Plug-In . SVG Version: 6.00 Build 0)  -->
<svg version="1.1" id="layer" xmlns="http://www.w3.org/2000/svg" xmlns:xlink="http://www.w3.org/1999/xlink" x="0px" y="0px"
	 viewBox="0 0 652 652" style="enable-background:new 0 0 652 652;" xml:space="preserve">
<style type="text/css">
	.st0{fill:#A51E36;}
</style>
<path class="st0" d="M321.9,393.5l-56.7-135.3c-2.1-5.1-5.7-9.4-10.3-12.4c-4.6-3-9.9-4.6-15.4-4.6h-13.4c-5.5,0-10.8,1.6-15.4,4.6
	c-4.6,3-8.1,7.3-10.3,12.4l-56.4,135.3c-0.7,1.7-1,3.6-0.8,5.4c0.2,1.8,0.8,3.6,1.8,5.1c1,1.5,2.4,2.8,4,3.7
	c1.6,0.9,3.4,1.3,5.3,1.3h11c3.9-0.3,7.7-1.5,11-3.7c4.4-3.9,8.2-8.6,11-13.8c6.4-11,15.8-18.1,26.8-18.1h37.4
	c11,0,20.4,7.1,26.8,18.1c2.8,5.2,6.6,9.9,11,13.8c3.3,2.1,7.1,3.4,11,3.7h11.2c1.8,0,3.7-0.4,5.3-1.3c1.6-0.9,3-2.1,4-3.7
	c1-1.5,1.7-3.3,1.8-5.1C322.9,397.1,322.6,395.2,321.9,393.5L321.9,393.5z M233.8,348.7c-11,0-24.3-7.9-22.8-18.3
	c3.9-24.8,12.1-44.5,21.7-44.5c9.6,0,18.1,19.8,23.6,44.5c2,8.6-10.9,18.2-22.5,18.2L233.8,348.7z M511.8,332.6c0,70,14.3,79-79,79
	c-47.7,0-97.2-38.8-97.2-86.6c0-47.8,42.3-86.6,104.4-86.6h9c21,0,46.7,3.9,46.7,14.7c0,1.1-0.2,2.3-0.7,3.3s-1.1,2-2,2.7
	c-0.8,0.8-1.8,1.3-2.9,1.7c-1.1,0.4-2.2,0.5-3.4,0.4c-27.3-2.8-107.1-4.9-107.1,63.6c0,0,2,62.2,53.2,62.2c0,0,38.9,3.7,38.9-25
	c0-15.5-7.7-22-17.4-26.6c-5.3-2.5-13.2-5.7-13.2-11.2c0,0-0.6-8,10.5-8c11,0,28.7-0.2,41.8-0.4c4.6,0,9.1,1.7,12.5,4.8
	C509.4,323.7,511.5,328,511.8,332.6z M328,75c-49.4,0-97.8,14.7-138.9,42.1C148,144.6,116,183.6,97,229.3
	C78.1,275,73.2,325.3,82.8,373.8s33.5,93,68.4,128c35,35,79.5,58.8,128,68.4c48.5,9.6,98.8,4.7,144.4-14.2
	c45.7-18.9,84.7-51,112.2-92.1C563.3,422.8,578,374.4,578,325c0-32.8-6.5-65.3-19-95.7c-12.6-30.3-31-57.9-54.2-81.1
	C481.6,125,454,106.6,423.7,94C393.3,81.5,360.8,75,328,75z M328,545.8c-43.7,0-86.4-13-122.7-37.2c-36.3-24.3-64.6-58.8-81.3-99.1
	c-16.7-40.4-21.1-84.8-12.6-127.6c8.5-42.8,29.6-82.2,60.4-113.1s70.2-51.9,113.1-60.4c42.8-8.5,87.2-4.1,127.6,12.6
	c40.4,16.7,74.8,45,99.1,81.3c24.3,36.3,37.2,79,37.2,122.7c0,29-5.7,57.7-16.8,84.5s-27.4,51.1-47.9,71.6s-44.9,36.8-71.6,47.9
	C385.7,540.1,357,545.8,328,545.8L328,545.8z"/>
</svg>
