<?xml version="1.0" encoding="utf-8"?>
<!-- Generator: Adobe Illustrator 19.2.1, SVG Export Plug-In . SVG Version: 6.00 Build 0)  -->
<svg version="1.1" id="layer" xmlns="http://www.w3.org/2000/svg" xmlns:xlink="http://www.w3.org/1999/xlink" x="0px" y="0px"
	 viewBox="0 0 652 652" style="enable-background:new 0 0 652 652;" xml:space="preserve">
<path d="M147.6,308c10.2,0,18.4,8.1,18.4,18c0,9.9-8.2,18-18.4,18c-10.2,0-18.4-8.1-18.4-18C129.2,316.1,137.5,308,147.6,308z
	 M95.9,308c10.2,0,18.4,8.1,18.4,18c0,9.9-8.2,18-18.4,18s-18.4-8.1-18.4-18C77.5,316.1,85.7,308,95.9,308z M513,308
	c6.2,0,11.8,3,15.1,7.7l-5.3,3.6c0,0,0,0,0,0l-0.1,0c-2.2-3-5.7-5-9.7-5c-6.6,0-11.9,5.2-11.9,11.7c0,6.4,5.3,11.7,11.9,11.7
	c4,0,7.6-2,9.7-5l0.1,0c0,0,0,0,0,0l5.3,3.6c-3.3,4.6-8.8,7.7-15.1,7.7h-0.1c-10.2,0-18.4-8.1-18.4-18
	C494.5,316.1,502.8,308,513,308L513,308z M44.4,308c5.1,0,9.7,2,13,5.3l-4.4,4.3l-0.2,0.1c-2.2-2.1-5.2-3.4-8.5-3.4
	c-6.6,0-11.9,5.2-11.9,11.7s5.3,11.7,11.9,11.7c5.5,0,10.2-3.7,11.5-8.7h-10v-6h16.6c0.2,1,0.3,2,0.3,3c0,9.9-8.2,18-18.4,18
	S26,335.9,26,326C26,316.1,34.2,308,44.4,308z M321.2,308.7l11.8,26.4l11.8-26.4h8.4v34.6h-7v-21.4l-9.6,21.4h-7.3l-9.6-21.4v21.4
	h-7v-34.6L321.2,308.7L321.2,308.7z M476.9,308.7v34.6h-7v-34.6L476.9,308.7L476.9,308.7z M441,308.7c6,0,10.9,4.8,10.9,10.6
	c0,5.1-3.6,9.3-8.5,10.3l10.7,13.7h-8.7l-10.4-13.4h-5.5v13.4h-7v-34.6L441,308.7z M281.4,308.7l15.4,34.6h-7.3l-3.7-8.3h-15.5
	l-3.7,8.3h-7.3l15.4-34.6C274.8,308.7,281.4,308.7,281.4,308.7z M400.2,308.7v6h-17.9v8.3h17.5v6h-17.5v8.3h17.9v6h-24.9v-34.6
	L400.2,308.7L400.2,308.7z M601.6,308.7L619,333v-24.3h7v34.6h-7.6l-17.6-24.6v24.6h-7v-34.6L601.6,308.7L601.6,308.7z M562.6,308.7
	l15.4,34.6h-7.3L567,335h-15.5l-3.7,8.3h-7.3l15.4-34.6C556,308.7,562.6,308.7,562.6,308.7z M197.4,308.7c9.8,0,17.7,7.8,17.7,17.3
	s-7.9,17.3-17.7,17.3h-13.9v-34.6L197.4,308.7z M95.9,314.3c-6.6,0-11.9,5.2-11.9,11.7s5.3,11.7,11.9,11.7s11.9-5.2,11.9-11.7
	S102.5,314.3,95.9,314.3L95.9,314.3z M147.6,314.3c-6.6,0-11.9,5.2-11.9,11.7s5.3,11.7,11.9,11.7s11.9-5.2,11.9-11.7
	S154.2,314.3,147.6,314.3L147.6,314.3z M196.5,314.7h-6v22.6h6c6.4,0,11.6-5.1,11.6-11.3C208.1,319.8,202.9,314.7,196.5,314.7z
	 M278.1,317.8l-5,11.2h10.1L278.1,317.8L278.1,317.8z M559.3,317.8l-5,11.2h10.1L559.3,317.8L559.3,317.8z M440.4,314.7h-11.1v9.2
	h11.1c2.6,0,4.7-2.1,4.7-4.6C445.2,316.8,443,314.7,440.4,314.7L440.4,314.7z"/>
</svg>
