<?xml version="1.0" encoding="UTF-8" standalone="no"?>
<!-- Created with Inkscape (http://www.inkscape.org/) -->

<svg
   xmlns:dc="http://purl.org/dc/elements/1.1/"
   xmlns:cc="http://creativecommons.org/ns#"
   xmlns:rdf="http://www.w3.org/1999/02/22-rdf-syntax-ns#"
   xmlns:svg="http://www.w3.org/2000/svg"
   xmlns="http://www.w3.org/2000/svg"
   xmlns:sodipodi="http://sodipodi.sourceforge.net/DTD/sodipodi-0.dtd"
   xmlns:inkscape="http://www.inkscape.org/namespaces/inkscape"
   width="305.60001"
   height="27.440001"
   viewBox="0 0 80.856665 7.2601665"
   version="1.1"
   id="svg50726"
   inkscape:version="0.92.0 r15299"
   sodipodi:docname="lucky brand.svg">
  <defs
     id="defs50720" />
  <sodipodi:namedview
     id="base"
     pagecolor="#ffffff"
     bordercolor="#666666"
     borderopacity="1.0"
     inkscape:pageopacity="0.0"
     inkscape:pageshadow="2"
     inkscape:zoom="2.6416338"
     inkscape:cx="151.8"
     inkscape:cy="12.72"
     inkscape:document-units="mm"
     inkscape:current-layer="layer1"
     showgrid="false"
     fit-margin-top="0"
     fit-margin-left="0"
     fit-margin-right="0"
     fit-margin-bottom="0"
     units="px"
     inkscape:window-width="1280"
     inkscape:window-height="744"
     inkscape:window-x="-4"
     inkscape:window-y="-4"
     inkscape:window-maximized="1" />
  <metadata
     id="metadata50723">
    <rdf:RDF>
      <cc:Work
         rdf:about="">
        <dc:format>image/svg+xml</dc:format>
        <dc:type
           rdf:resource="http://purl.org/dc/dcmitype/StillImage" />
        <dc:title></dc:title>
      </cc:Work>
    </rdf:RDF>
  </metadata>
  <g
     inkscape:label="Layer 1"
     inkscape:groupmode="layer"
     id="layer1"
     transform="translate(287.36018,-242.45653)">
    <g
       style="clip-rule:evenodd;fill-rule:evenodd;stroke-linejoin:round;stroke-miterlimit:1.41420996"
       id="g50752"
       transform="matrix(0.26458333,0,0,0.26458333,-287.53216,242.38245)">
      <g
         id="g50730">
        <path
           id="path50728"
           d="M 276.48,22.27 V 5.6 c 0,-2.21 0,-3.5 0.52,-3.94 h -5.88 c 0.48,0.41 0.5,1.57 0.5,3.53 v 12.47 l -11.06,-16 h -5.38 c 0.52,0.44 0.52,1.73 0.52,3.94 v 16.67 c 0,2.21 0,3.5 -0.52,3.94 h 5.88 c -0.48,-0.41 -0.5,-1.56 -0.5,-3.5 v -12.5 l 11.06,16 H 277 c -0.52,-0.44 -0.52,-1.73 -0.52,-3.94 m 15.8,-20.61 h -7.92 c 0.52,0.44 0.52,1.73 0.52,3.94 v 16.68 c 0,2.21 0,3.5 -0.52,3.94 h 7.92 c 7.15,0 12.97,-5.51 12.97,-12.28 0,-6.77 -5.82,-12.28 -12.97,-12.28 m 0,19.76 h -2.54 V 6.46 h 2.54 c 4.47,0 8.11,3.36 8.11,7.48 0,4.12 -3.64,7.48 -8.11,7.48 m -41.61,4.79 c -0.71,-0.44 -1.24,-1.73 -2.15,-3.94 L 241.66,5.59 c -0.9,-2.21 -1.42,-3.5 -1.08,-3.94 h -5.85 c 0.34,0.44 -0.18,1.74 -1.08,3.94 l -6.86,16.68 c -0.91,2.21 -1.43,3.5 -2.14,3.94 h 6.46 c -0.44,-0.5 0.02,-1.69 0.94,-3.94 l 0.05,-0.13 h 11.11 l 0.06,0.13 c 0.92,2.24 1.39,3.43 0.95,3.93 h 6.45 z m -16.57,-8.92 3.56,-8.65 3.56,8.65 z m -12.6,8.92 c -0.83,-0.44 -1.56,-1.58 -3.12,-3.79 l -3.57,-5.2 c 2.73,-1.33 4.61,-4.13 4.61,-7.36 0,-4.52 -3.68,-8.2 -8.2,-8.2 L 200.49,1.65 c 0.52,0.44 0.52,1.73 0.52,3.94 v 16.68 c 0,2.21 0,3.5 -0.51,3.94 h 5.9 c -0.52,-0.44 -0.52,-1.73 -0.52,-3.94 v -4.21 h 3.61 l 4.35,6.33 c 0.55,0.88 0.77,1.44 0.57,1.82 z M 205.88,6.52 h 5.35 c 1.85,0 3.35,1.5 3.35,3.35 0,1.85 -1.5,3.35 -3.35,3.35 h -5.35 z m -14.81,6.25 c 0.88,-1.16 1.39,-2.5 1.39,-4.02 0,-3.95 -3.47,-7.09 -7.73,-7.09 h -10.22 c 0.52,0.44 0.52,1.73 0.52,3.94 v 16.68 c 0,2.21 0,3.5 -0.52,3.94 h 11.2 c 4.61,0 8.37,-3.38 8.37,-7.64 0,-2.39 -1.17,-4.39 -3.01,-5.81 M 179.66,6.32 h 5.03 c 1.72,0 3.06,1.07 3.06,2.43 0,1.36 -1.34,2.42 -3.06,2.42 h -5.03 z m 6.02,15.23 h -6.02 v -5.91 h 6.02 c 2.07,0 3.7,1.29 3.7,2.94 0,1.66 -1.63,2.97 -3.7,2.97"
           inkscape:connector-curvature="0"
           style="fill:currentColor" />
      </g>
      <g
         id="group-clover">
        <path
           id="path50732"
           d="m 162.67,15.74 c -1.29,-1.06 -4.19,-1.78 -6.65,-2 2.43,-0.46 5.22,-1.46 6.4,-2.63 1.14,-1.13 1.04,-3.01 -0.13,-4.11 -0.81,-0.76 -1.33,-0.8 -2.09,-1.51 -0.76,-0.71 -0.82,-1.23 -1.64,-1.99 -1.17,-1.1 -3.05,-1.08 -4.11,0.13 -1.21,1.38 -2.09,4.71 -2.31,7.3 -0.22,-2.59 -1.1,-5.92 -2.31,-7.3 -1.06,-1.21 -2.94,-1.23 -4.11,-0.13 -0.81,0.76 -0.88,1.28 -1.64,1.99 -0.76,0.71 -1.28,0.75 -2.09,1.51 -1.17,1.1 -1.27,2.98 -0.13,4.11 1.18,1.17 3.97,2.17 6.4,2.63 -2.47,0.22 -5.36,0.95 -6.65,2 -1.24,1.02 -1.33,2.9 -0.27,4.1 0.73,0.84 1.25,0.92 1.94,1.71 0.69,0.78 0.7,1.31 1.44,2.14 1.06,1.21 2.93,1.37 4.1,0.27 0.92,-0.86 1.77,-2.66 2.37,-4.53 -0.18,2.29 0.28,4.61 1.38,6.65 l 1.25,-0.68 c -1.17,-2.15 -1.52,-4.67 -1.04,-7.08 0.58,2.24 1.59,4.61 2.69,5.64 1.17,1.1 3.05,0.94 4.1,-0.27 0.73,-0.84 0.75,-1.36 1.44,-2.14 0.69,-0.78 1.2,-0.87 1.94,-1.7 1.05,-1.22 0.97,-3.1 -0.28,-4.11"
           inkscape:connector-curvature="0" />
      </g>
      <g
         id="group-brand">
        <path
           id="path50735"
           d="M 16.51,20.96 H 7.03 V 5.6 c 0,-2.21 0,-3.5 0.51,-3.94 H 1.65 C 2.17,2.1 2.16,3.39 2.16,5.6 V 26.22 H 16.5 c 2.21,0 3.5,-0.01 3.94,0.5 v -6.28 c -0.43,0.52 -1.72,0.52 -3.93,0.52 M 41.67,1.65 c 0.52,0.44 0.51,1.73 0.51,3.94 v 9.82 c 0,3.52 -2.86,6.38 -6.38,6.38 -3.52,0 -6.38,-2.86 -6.38,-6.38 V 5.59 c 0,-2.21 0,-3.5 0.51,-3.94 h -5.89 c 0.52,0.44 0.52,1.73 0.52,3.94 v 9.82 c 0,6.2 5.04,11.24 11.24,11.24 6.2,0 11.24,-5.04 11.24,-11.24 V 5.59 c 0,-2.21 0,-3.5 0.52,-3.94 z m 29.88,17.28 c 0.05,0.67 -1.04,1.64 -2.45,2.25 -1.02,0.41 -2.13,0.63 -3.28,0.63 -4.62,0 -8.38,-3.52 -8.38,-7.84 0,-4.32 3.76,-7.84 8.38,-7.84 1.16,0 2.28,0.22 3.31,0.64 1.41,0.61 2.49,1.57 2.44,2.25 L 75.7,4.82 C 74.89,4.65 73.29,3.49 72.77,3.18 70.7,1.95 68.32,1.28 65.82,1.28 c -7.3,0 -13.24,5.7 -13.24,12.71 0,7.01 5.94,12.71 13.24,12.71 2.49,0 4.87,-0.65 6.92,-1.89 0.43,-0.26 2.13,-1.48 2.94,-1.65 z m 31.06,3.34 -8.11,-10.39 6.07,-6.28 c 2.16,-2.24 3.38,-3.5 4.33,-3.94 h -8.09 c 0.22,0.48 -1.8,2.65 -2.95,3.88 l -6.87,7.12 v -8.2 c 0.02,-1.52 0.09,-2.44 0.51,-2.8 h -5.89 c 0.44,0.37 0.5,1.36 0.51,3 v 18.56 c -0.01,1.64 -0.08,2.63 -0.51,3 H 87.5 C 87.08,25.86 87,24.94 86.99,23.42 v -3.77 l 4.1,-4.24 7.23,9.26 c 0.48,0.71 0.66,1.18 0.42,1.55 h 7.47 c -0.88,-0.45 -1.83,-1.74 -3.6,-3.95 M 127.29,1.65 c 0.28,0.35 -0.34,1.34 -1.53,2.97 l -4.93,6.69 -4.84,-6.57 C 114.75,3.04 114.1,2 114.39,1.65 h -7.23 c 0.84,0.44 1.78,1.73 3.42,3.94 l 7.83,10.62 v 6.06 c 0,2.21 0,3.5 -0.51,3.94 h 5.89 c -0.52,-0.44 -0.51,-1.73 -0.51,-3.94 v -6.06 l 7.83,-10.62 c 1.64,-2.21 2.59,-3.5 3.43,-3.94 z"
           inkscape:connector-curvature="0"
           style="fill:currentColor" />
      </g>
    </g>
  </g>
</svg>
