<?xml version="1.0" encoding="utf-8"?>
<!-- Generator: Adobe Illustrator 19.2.1, SVG Export Plug-In . SVG Version: 6.00 Build 0)  -->
<svg version="1.1" id="layer" xmlns="http://www.w3.org/2000/svg" xmlns:xlink="http://www.w3.org/1999/xlink" x="0px" y="0px"
	 viewBox="0 0 652 652" style="enable-background:new 0 0 652 652;" xml:space="preserve">
<path d="M25.1,187.8l-4,2.8v131.3c0,97.9,0.6,131.7,2.2,132.6c3.7,2.4,28,2.9,33.1,0.9l5.2-2v-46.5c0-34.4,0.6-47.3,2.4-49.5
	c1.3-1.8,6.4-3.3,13.6-4c22.3-2,39.9-14.3,49.1-34c3.5-7.9,3.9-11.4,3.9-49.8c-0.2-34.4-0.6-42.7-3.1-49.3
	c-10.3-25.8-30.7-35.1-76-35.3C34.3,184.9,28.3,185.6,25.1,187.8z M80.9,227.2c8.3,3.1,10.1,11,10.1,45.8c0,30.9,0,31.3-4.8,37
	c-4.4,5.2-5.7,5.7-14.3,5.2l-9.4-0.6l-0.6-43c-0.4-33.3,0.2-43.4,1.8-44.7C67.1,224.8,75,225,80.9,227.2z M180.4,186.6
	c-2.9,0.6-5.9,2.4-6.8,3.9c-0.7,1.5-4.4,24.6-8.1,51.5c-3.5,26.9-11.4,83.7-17.5,126.4s-11,79.6-11,82.2c0,4,0.9,4.6,10.1,5.7
	c5.5,0.7,13.8,0.7,18.4,0.2c9.4-1.5,8.8,0.4,12-34.2c3.1-33.1,2.2-31.3,13.8-31.3c5.5,0,10.3,0.7,10.9,1.5
	c0.6,0.9,2.8,14.9,4.8,30.9c2.9,21.7,4.6,29.8,6.8,31.6c3.3,2.4,17.3,2.9,28.9,0.9l7-1.1l-0.9-8.5c-2.2-16.7-36.2-249.6-37.2-253.5
	C210,186.4,194.9,183.2,180.4,186.6z M194.2,275.4c0.7,2.2,6.4,85.5,5.9,86.5c-0.9,1.8-12,1.8-14.5,0c-1.5-0.9-1.1-13.2,1.1-43.6
	c1.8-23.4,3.3-42.5,3.5-42.9c0.2-0.2,1.1-0.4,2-0.4C193.3,275,194,275.2,194.2,275.4z M380.3,187.5c-18.8,4.6-32.7,18.2-38.3,36.6
	c-4.2,14.2-4,182.1,0.2,196.3c4,13.6,18.4,28,32,32c19.3,5.7,36.6,3.1,45.8-7c6.1-6.6,8.6-6.1,13.1,2.6c3.1,6.1,4.8,7.4,9,7.4
	c3.1,0,5.7-1.1,6.4-2.9c0.6-1.7,1.1-32,1.1-67.9c0-58.1-0.4-65.1-3.1-67.3c-3.3-2.9-33.5-3.7-45.1-1.1l-7,1.5v11.8
	c0,11.4,0.2,12,5.2,13.1c2.8,0.6,6.1,1.3,7.4,1.8c1.7,0.4,2.2,8.3,2.2,30.7c0,27.8-0.4,30.5-3.9,35.1c-5,6.3-15.8,6.8-21.2,0.9
	c-3.3-3.7-3.5-7.9-3.5-89.9v-86.1l4.4-4.8c6.1-6.6,15.1-6.4,20.2,0c3.1,4,3.9,7.5,3.9,19.1c0,11.4,0.6,14.5,2.9,15.5
	c4.6,1.8,27.6,1.3,33.1-0.7l4.8-1.8l-0.7-18c-0.9-21-5.3-32.9-15.8-43.2C420.2,188,399.1,182.7,380.3,187.5z M483.3,186.7
	c-2.4,0.9-4.2,2.8-4.2,4c-0.2,234.5,0,263.4,2.2,264.9c1.3,0.7,21.9,1.3,45.6,0.9l43.2-0.4v-18.4v-18.4l-23.7-0.6
	c-13.8-0.2-24.8-1.3-26.3-2.6c-3.3-2.8-3.5-76.9-0.2-80.2c1.3-1.3,7.5-2.2,15.6-2.2c15.8,0,17.3-1.5,16.9-17.8
	c-0.4-19.5-0.6-19.7-17.3-20.8l-14.7-0.9v-34.9v-34.9l23.9-0.6c28.3-0.6,28.5-0.6,28.5-19.3c0-21,2.8-19.7-44.7-19.5
	C505.8,185.1,485.5,185.8,483.3,186.7z M272.2,188.9c-0.6,1.3-0.7,61.6-0.6,133.9l0.6,131.5h19.3h19.3V321V187.7l-18.9-0.6
	C277.9,186.7,272.7,187.3,272.2,188.9z M603.4,419.4c2.9,0,5.9,0.7,8.6,2.2c2.8,1.5,5,3.7,6.6,6.4s2.4,5.7,2.4,8.8
	c0,3.1-0.7,5.9-2.4,8.8c-1.5,2.8-3.7,5-6.4,6.6c-2.8,1.5-5.7,2.4-8.8,2.4c-3.1,0-6.1-0.7-8.8-2.4c-2.8-1.5-5-3.7-6.6-6.6
	c-1.5-2.8-2.4-5.7-2.4-8.8c0-3.1,0.7-6.1,2.4-8.8c1.7-2.8,3.9-5,6.6-6.4C597.4,420.2,600.5,419.4,603.4,419.4z M603.4,422.4
	c-2.4,0-5,0.6-7.2,1.8c-2.4,1.3-4.2,3.1-5.5,5.5c-1.3,2.4-2,4.8-2,7.4c0,2.6,0.7,5,2,7.4c1.3,2.4,3.1,4.2,5.5,5.5s4.8,2,7.4,2
	c2.6,0,5-0.7,7.4-2c2.4-1.3,4.2-3.1,5.5-5.5c1.3-2.4,2-4.8,2-7.4c0-2.6-0.7-5-2-7.4c-1.3-2.4-3.1-4.2-5.5-5.5
	C608.6,422.9,606,422.4,603.4,422.4z M595.7,446.8v-18.9h6.6c2.2,0,3.9,0.2,4.8,0.6c0.9,0.4,1.8,0.9,2.4,1.8
	c0.6,0.9,0.9,1.8,0.9,2.8c0,1.5-0.6,2.6-1.5,3.7c-0.9,1.1-2.4,1.7-3.9,1.7c0.7,0.4,1.3,0.6,1.7,0.9c0.7,0.7,1.7,2,2.8,3.7l2.4,3.7
	h-3.7l-1.7-2.9c-1.3-2.4-2.4-3.9-3.1-4.4c-0.6-0.4-1.5-0.7-2.4-0.7h-1.8v8.1h-3.5V446.8z M598.8,436.2h3.7c1.8,0,2.9-0.2,3.7-0.7
	c0.7-0.6,0.9-1.3,0.9-2c0-0.6-0.2-1.1-0.6-1.5s-0.7-0.7-1.3-0.9s-1.7-0.4-3.1-0.4h-3.5v5.5H598.8z"/>
</svg>
