<svg xmlns="http://www.w3.org/2000/svg" xmlns:xlink="http://www.w3.org/1999/xlink" xmlns:inkscape="http://www.inkscape.org/namespaces/inkscape" version="1.1" width="500" height="500" viewBox="0 0 500 500">
<defs>
<clipPath id="clip_1">
<path transform="matrix(1,0,0,-1,0,500)" d="M0 500H500V0H0Z"/>
</clipPath>
</defs>
<g inkscape:groupmode="layer" inkscape:label="Layer 1">
<g clip-path="url(#clip_1)">
<path transform="matrix(1,0,0,-1,442.6338,240.2139)" d="M0 0H10.594V-5.257C12.664-1.434 16.647 .956 22.302 .956 29.63 .956 34.647-3.823 34.647-13.461V-38.312H23.736V-14.735C23.736-10.434 21.506-8.044 17.683-8.044 14.019-8.044 10.992-10.912 10.992-16.249V-38.392H.08V0ZM-20.47-19.275C-20.47-12.267-23.656-7.885-29.312-7.885-34.568-7.885-38.312-11.868-38.312-19.275-38.312-26.284-35.126-30.665-29.312-30.665-23.258-30.586-20.47-25.807-20.47-19.275M-49.144-19.275C-49.144-7.089-40.781 1.195-29.312 1.195-17.443 1.195-9.638-6.85-9.638-19.275-9.638-30.984-17.363-39.586-29.471-39.586-41.976-39.586-49.145-30.427-49.145-19.275ZM-69.854 0H-59.100999V-38.312H-69.854ZM-71.128 12.346C-71.128 15.93-68.181 18.877-64.596 18.877-61.012 18.877-58.064 15.93-58.064 12.346-58.064 8.762-61.012 5.814-64.596 5.814-68.181 5.735-71.128 8.682-71.128 12.346M-99.961-26.763V-9H-106.015V0H-99.961V10.992H-89.367V0H-80.526V-9H-89.367V-25.01C-89.367-27.399-88.093-28.674-85.544-28.674H-80.605V-38.312H-88.332C-95.262-38.312-99.961-34.17-99.961-26.763M-124.254-23.896V-22.143H-131.264C-135.246-22.143-137.795-23.576-137.795-26.922-137.795-29.948-135.087-31.541-131.741-31.541-127.36-31.541-124.254-28.833-124.254-23.896M-148.786-27.878C-148.786-19.992-143.211-15.691-134.529-15.691H-124.254V-13.143C-124.254-9-126.803-6.93-130.626-6.93-134.29-6.93-136.839-9-136.998-12.505H-147.113C-146.317-3.504-139.388 .956-129.989 .956-119.555 .956-113.661-4.62-113.661-13.779V-38.312H-124.254V-32.736C-125.847-36.241-129.033-39.268-135.484-39.268-140.582-39.268-148.786-36.719-148.786-27.878M-214.1 0H-203.825V-5.576C-201.754-1.274-198.01 .956-192.435 .956-186.859 .956-183.594-2.071-182.319-6.053-180.727-2.39-176.584 .956-170.77 .956-162.406 .956-158.583-5.098-158.583-10.593V-38.312H-169.495V-13.302C-169.495-11.23-170.929-8.044-174.912-8.044-178.734-8.044-180.965-10.753-180.965-14.895V-38.312H-191.559V-13.302C-191.559-9.956-194.187-7.885-197.134-7.885-200.32-7.885-203.347-9.479-203.347-15.213V-38.312H-213.94V0ZM-249.066 0H-238.313V-8.204C-236.879-2.947-232.897 .318-227.72 .318H-223.737V-10.593H-229.153C-234.729-10.593-238.154-13.938-238.154-20.072V-38.312H-249.066ZM-269.536-19.275C-269.536-12.267-272.722-7.885-278.377-7.885-283.634-7.885-287.377-11.868-287.377-19.275-287.377-26.284-284.192-30.665-278.377-30.665-272.244-30.586-269.536-25.807-269.536-19.275M-298.21-19.275C-298.21-7.089-289.847 1.195-278.377 1.195-266.509 1.195-258.704-6.85-258.704-19.275-258.704-30.984-266.43-39.586-278.537-39.586-291.042-39.586-298.21-30.427-298.21-19.275M-323.698-9H-329.592V0H-323.698V5.576C-323.698 13.142-318.76 17.762-311.512 17.762H-304.662V8.602H-309.122C-311.671 8.602-313.104 7.168-313.104 4.62V0H-304.741V-9H-313.104V-38.312H-323.698ZM-346.558-15.213C-346.558-10.275-349.903-7.009-354.603-7.009-359.541-7.009-362.806-10.195-363.284-15.213ZM-373.958-19.594C-373.958-8.363-367.107 .876-354.603 .876-344.726 .876-335.885-5.177-335.885-20.868V-22.302H-363.205C-363.045-27.878-359.7-31.063-354.443-31.063-350.46-31.063-348.071-29.471-347.274-26.763H-336.522C-337.637-32.179-342.734-39.268-354.443-39.268-366.948-39.268-373.958-31.063-373.958-19.594M-400.242-7.089C-395.304-7.089-391.878-4.54-391.878 .478-391.878 5.098-394.905 7.885-400.242 7.885H-408.765V-7.009H-400.242ZM-419.916 17.762H-398.808C-388.056 17.762-380.409 11.708-380.409 .796-380.409-7.248-384.87-12.505-391.162-14.895L-379.135-38.312H-391.719L-401.994-16.328H-408.685V-38.312H-419.916Z"/>
</g>
</g>
</svg>
